<?xml version="1.0" encoding="UTF-8" standalone="no"?>
<!DOCTYPE svg PUBLIC "-//W3C//DTD SVG 1.1//EN" "http://www.w3.org/Graphics/SVG/1.1/DTD/svg11.dtd">
<svg width="100%" height="100%" viewBox="0 0 623 442" version="1.1" xmlns="http://www.w3.org/2000/svg" xmlns:xlink="http://www.w3.org/1999/xlink" xml:space="preserve" xmlns:serif="http://www.serif.com/" style="fill-rule:evenodd;clip-rule:evenodd;stroke-linejoin:round;stroke-miterlimit:2;">
    <g transform="matrix(1,0,0,1,-114.384,-121.886)">
        <g id="Desktop" transform="matrix(0.552021,0,0,0.552021,-60.3804,-486.94)">
            <g id="Desk">
                <g transform="matrix(0.795767,0.33051,-0.830861,0.450681,1741.08,510.85)">
                    <rect x="371.086" y="1625.64" width="952.401" height="444.251" style="fill:rgb(186,186,186);"/>
                </g>
                <path d="M316.59,1566.36L316.59,1587.22L1074.48,1902L1443.59,1701.78L1443.59,1680.92L1074.48,1881.14L316.59,1566.36Z" style="fill:rgb(143,143,143);"/>
            </g>
            <g id="Laptop" transform="matrix(0.34662,0,0,0.34662,532.214,1093.3)">
                <g transform="matrix(0.87269,0,0,0.87269,63.9087,193.223)">
                    <path d="M316.59,1566.36L316.59,1587.22L1074.48,1902L1443.59,1701.78L1443.59,1680.92L1074.48,1881.14L316.59,1566.36Z" style="fill:rgb(52,52,52);"/>
                </g>
                <g transform="matrix(2.51771,0,0,2.51771,-1276.05,-2559.39)">
                    <path d="M1032.59,1675.94L769.891,1566.83L641.95,1636.23L904.65,1745.34L1032.59,1675.94ZM852.654,1663.5L837.071,1657.01L817.873,1667.39L833.455,1673.88L852.654,1663.5ZM835.362,1656.3L819.78,1649.81L800.581,1660.19L816.163,1666.68L835.362,1656.3ZM873.961,1651.98L858.379,1645.49L839.18,1655.87L854.762,1662.36L873.961,1651.98ZM856.669,1644.78L841.087,1638.29L821.888,1648.67L837.47,1655.16L856.669,1644.78Z" style="fill:rgb(86,86,86);"/>
                </g>
            </g>
            <g id="PC" transform="matrix(1,0,0,1,79.1132,66.9419)">
                <g transform="matrix(0.814473,0.344536,0,1.07761,483.654,-567.782)">
                    <path d="M441.704,1766.43L349.202,1766.43L349.202,1780.06L559.521,1780.06L559.521,1766.43L467.02,1766.43L467.02,1743.06L752.314,1743.06L752.314,1480.16L156.409,1480.16L156.409,1743.06L441.704,1743.06L441.704,1766.43Z" style="fill:rgb(124,124,124);"/>
                </g>
                <g transform="matrix(1,0,0,1,-79.1132,-66.9419)">
                    <path d="M690.158,1148.09L696.072,1142.18L1181.42,1347.49L1181.42,1630.79L1175.51,1636.71L1175.51,1353.4L690.158,1148.09Z" style="fill:rgb(201,201,201);"/>
                </g>
                <g transform="matrix(0.770709,0.327704,0,0.898246,195.75,-202.221)">
                    <rect x="544.995" y="1238.65" width="617.448" height="301.239" style="fill:rgb(2,0,79);"/>
                </g>
                <g transform="matrix(0.00128466,0.300654,-0.301731,-0.148501,1589.17,1564.31)">
                    <path d="M295.762,2045.76C301.307,2047.4 307.175,2048.27 313.246,2048.27C330.316,2048.27 345.778,2041.34 356.975,2030.14C368.171,2018.95 375.106,2003.48 375.106,1986.41C375.106,1969.34 368.171,1953.88 356.975,1942.68C345.778,1931.49 330.316,1924.55 313.246,1924.55C296.176,1924.55 280.714,1931.49 269.517,1942.68C258.32,1953.88 251.386,1969.34 251.386,1986.41C251.386,1996.56 253.835,2006.13 258.174,2014.59L211.064,2018.81L216.934,2071.28C196.972,2048.65 184.859,2018.93 184.859,1986.41C184.859,1950.98 199.236,1918.88 222.476,1895.64C245.716,1872.4 277.816,1858.03 313.246,1858.03C348.676,1858.03 380.776,1872.4 404.016,1895.64C427.256,1918.88 441.633,1950.98 441.633,1986.41C441.633,2021.84 427.256,2053.94 404.016,2077.18C380.776,2100.42 348.676,2114.8 313.246,2114.8C291.089,2114.8 270.235,2109.18 252.034,2099.28L233.363,2122.13L222.709,2026.88L318.169,2018.34L295.762,2045.76Z" style="fill:rgb(97,0,210);"/>
                </g>
                <g transform="matrix(0.331643,0.140554,0,0.579545,536.7,391.028)">
                    <path d="M568.247,1192.18C568.247,1186.86 561.849,1182.54 553.967,1182.54L320.796,1182.54C312.915,1182.54 306.516,1186.86 306.516,1192.18L306.516,1211.46C306.516,1216.78 312.915,1221.1 320.796,1221.1L553.967,1221.1C561.849,1221.1 568.247,1216.78 568.247,1211.46L568.247,1192.18Z" style="fill:rgb(255,6,0);"/>
                </g>
                <g transform="matrix(0.400214,0.169615,0,0.579545,515.682,411.89)">
                    <path d="M568.247,1192.18C568.247,1186.86 562.945,1182.54 556.414,1182.54L318.35,1182.54C311.819,1182.54 306.516,1186.86 306.516,1192.18L306.516,1211.46C306.516,1216.78 311.819,1221.1 318.35,1221.1L556.414,1221.1C562.945,1221.1 568.247,1216.78 568.247,1211.46L568.247,1192.18Z" style="fill:rgb(125,14,255);"/>
                </g>
                <g transform="matrix(1.02968,0.436389,0,0.579545,322.741,398.071)">
                    <path d="M568.247,1192.18C568.247,1186.86 566.186,1182.54 563.648,1182.54L311.116,1182.54C308.577,1182.54 306.516,1186.86 306.516,1192.18L306.516,1211.46C306.516,1216.78 308.577,1221.1 311.116,1221.1L563.648,1221.1C566.186,1221.1 568.247,1216.78 568.247,1211.46L568.247,1192.18Z" style="fill:rgb(255,44,14);"/>
                </g>
                <g transform="matrix(0.82285,0.348733,0,0.579545,386.137,456.487)">
                    <path d="M568.247,1192.18C568.247,1186.86 565.668,1182.54 562.492,1182.54L312.272,1182.54C309.095,1182.54 306.516,1186.86 306.516,1192.18L306.516,1211.46C306.516,1216.78 309.095,1221.1 312.272,1221.1L562.492,1221.1C565.668,1221.1 568.247,1216.78 568.247,1211.46L568.247,1192.18Z" style="fill:rgb(60,0,130);"/>
                </g>
                <g transform="matrix(0.929516,0.39394,0,0.579545,353.442,508.836)">
                    <path d="M568.247,1192.18C568.247,1186.86 565.964,1182.54 563.152,1182.54L311.611,1182.54C308.799,1182.54 306.516,1186.86 306.516,1192.18L306.516,1211.46C306.516,1216.78 308.799,1221.1 311.611,1221.1L563.152,1221.1C565.964,1221.1 568.247,1216.78 568.247,1211.46L568.247,1192.18Z" style="fill:rgb(125,14,255);"/>
                </g>
                <g transform="matrix(1.48803,0.630643,0,0.579545,182.249,405.277)">
                    <path d="M568.247,1192.18C568.247,1186.86 566.821,1182.54 565.065,1182.54L309.699,1182.54C307.942,1182.54 306.516,1186.86 306.516,1192.18L306.516,1211.46C306.516,1216.78 307.942,1221.1 309.699,1221.1L565.065,1221.1C566.821,1221.1 568.247,1216.78 568.247,1211.46L568.247,1192.18Z" style="fill:rgb(222,0,9);"/>
                </g>
                <g transform="matrix(1,0,0,1,-79.1132,-66.9419)">
                    <path d="M847.183,1523L853.316,1523L1024.62,1595.46L1024.62,1610.15L1018.48,1610.15L1018.48,1595.46L847.183,1523Z" style="fill:rgb(164,164,164);"/>
                </g>
                <g transform="matrix(1,0,0,1,-79.1132,-66.9419)">
                    <path d="M918.647,1553.23L918.647,1528.05L939.496,1536.84L939.496,1562.05L918.647,1553.23Z" style="fill:rgb(128,128,128);"/>
                </g>
                <g transform="matrix(1,0,0,1,-79.1132,-66.9419)">
                    <path d="M939.496,1562.05L943.142,1561.1L943.142,1538.41L939.496,1536.98L939.496,1562.05Z" style="fill:rgb(86,86,86);"/>
                </g>
                <g id="Bubbles" transform="matrix(1.81152,0,0,1.81152,30.2673,815.161)">
                    <g transform="matrix(0.503335,0.213653,4.32028e-17,0.53484,300.578,8.89133)">
                        <circle cx="601.934" cy="198.654" r="23.369" style="fill:rgb(255,44,14);"/>
                    </g>
                    <g transform="matrix(0.503335,0.213653,4.32028e-17,0.53484,324.103,140.505)">
                        <circle cx="601.934" cy="198.654" r="23.369" style="fill:rgb(255,44,14);"/>
                    </g>
                    <g transform="matrix(1.13248,0.480711,9.72045e-17,1.20337,-54.3588,-230.922)">
                        <circle cx="601.934" cy="198.654" r="23.369" style="fill:rgb(86,14,255);"/>
                    </g>
                    <g transform="matrix(0.314755,0.133605,2.70164e-17,0.334456,421.446,189.33)">
                        <circle cx="601.934" cy="198.654" r="23.369" style="fill:rgb(86,14,255);"/>
                    </g>
                    <g transform="matrix(0.265426,0.112667,2.27823e-17,0.282039,473.755,137.318)">
                        <circle cx="601.934" cy="198.654" r="23.369" style="fill:rgb(182,36,15);"/>
                    </g>
                    <g transform="matrix(0.265426,0.112667,2.27823e-17,0.282039,479.958,230.952)">
                        <circle cx="601.934" cy="198.654" r="23.369" style="fill:rgb(182,36,15);"/>
                    </g>
                </g>
            </g>
            <g id="Poster">
                <g transform="matrix(1,0,0,1,-925.257,218.86)">
                    <path d="M1484.19,1160.76L1484.19,884.041L1309.86,984.287L1309.86,1261L1484.19,1160.76Z" style="fill-opacity:0.72;"/>
                </g>
                <path d="M579.527,1387.55L579.527,1110.83L405.195,1211.08L405.195,1487.79L579.527,1387.55Z" style="fill:rgb(2,0,79);"/>
                <g transform="matrix(3.88917e-18,0.0635149,-3.21499,1.8487,7144.39,-2567.84)">
                    <path d="M671.325,2018.05C671.325,2017.04 630.094,2016.23 579.31,2016.23L395.281,2016.23C344.497,2016.23 303.266,2017.04 303.266,2018.05L303.266,2086.46C303.266,2087.47 344.497,2088.28 395.281,2088.28L579.31,2088.28C630.094,2088.28 671.325,2087.47 671.325,2086.46L671.325,2018.05Z" style="fill:rgb(222,0,9);"/>
                </g>
                <g transform="matrix(3.88917e-18,0.0635149,-2.26603,1.30303,5162.69,-1395.05)">
                    <path d="M671.325,2018.81C671.325,2017.38 630.094,2016.23 579.31,2016.23L395.281,2016.23C344.497,2016.23 303.266,2017.38 303.266,2018.81L303.266,2085.7C303.266,2087.13 344.497,2088.28 395.281,2088.28L579.31,2088.28C630.094,2088.28 671.325,2087.13 671.325,2085.7L671.325,2018.81Z" style="fill:rgb(107,83,255);"/>
                </g>
                <g transform="matrix(3.88917e-18,0.0635149,-3.11969,1.7939,6945.37,-2385.95)">
                    <path d="M671.325,2018.1C671.325,2017.07 630.094,2016.23 579.31,2016.23L395.281,2016.23C344.497,2016.23 303.266,2017.07 303.266,2018.1L303.266,2086.41C303.266,2087.44 344.497,2088.28 395.281,2088.28L579.31,2088.28C630.094,2088.28 671.325,2087.44 671.325,2086.41L671.325,2018.1Z" style="fill:rgb(137,137,137);"/>
                </g>
                <g transform="matrix(3.49032e-17,0.131289,-0.126971,0.0730113,706.657,943.768)">
                    <path d="M1200.2,2113.02L1226.79,2113.02C1227.62,2113.02 1228.37,2113.39 1228.88,2113.98L1243.27,2125.11C1243.42,2125.22 1243.56,2125.35 1243.67,2125.49C1244.02,2125.41 1244.38,2125.38 1244.74,2125.38C1247.61,2125.38 1249.93,2127.7 1249.93,2130.56C1249.93,2133.43 1247.61,2135.75 1244.74,2135.75C1241.88,2135.75 1239.55,2133.43 1239.55,2130.56C1239.55,2130.13 1239.61,2129.7 1239.71,2129.3L1225.76,2118.52L1200.2,2118.52L1200.2,2123.29C1200.2,2133.58 1191.84,2141.94 1181.55,2141.94L1180.97,2141.94L1180.97,2168.3L1191.75,2182.25C1192.16,2182.15 1192.58,2182.09 1193.02,2182.09C1195.88,2182.09 1198.21,2184.42 1198.21,2187.28C1198.21,2190.15 1195.88,2192.47 1193.02,2192.47C1190.15,2192.47 1187.83,2190.15 1187.83,2187.28C1187.83,2186.92 1187.87,2186.56 1187.94,2186.22C1187.8,2186.1 1187.67,2185.96 1187.56,2185.81L1176.43,2171.41C1175.85,2170.91 1175.48,2170.16 1175.48,2169.33L1175.48,2141.94L1165.74,2141.94L1165.74,2168.3L1176.52,2182.25C1176.93,2182.15 1177.35,2182.09 1177.79,2182.09C1180.65,2182.09 1182.98,2184.42 1182.98,2187.28C1182.98,2190.15 1180.65,2192.47 1177.79,2192.47C1174.92,2192.47 1172.6,2190.15 1172.6,2187.28C1172.6,2186.92 1172.64,2186.56 1172.71,2186.22C1172.57,2186.1 1172.44,2185.96 1172.33,2185.81L1161.2,2171.41C1160.62,2170.91 1160.25,2170.16 1160.25,2169.33L1160.25,2141.94L1150.51,2141.94L1150.51,2168.3L1161.29,2182.25C1161.7,2182.15 1162.12,2182.09 1162.56,2182.09C1165.42,2182.09 1167.75,2184.42 1167.75,2187.28C1167.75,2190.15 1165.42,2192.47 1162.56,2192.47C1159.69,2192.47 1157.37,2190.15 1157.37,2187.28C1157.37,2186.92 1157.41,2186.56 1157.48,2186.22C1157.34,2186.1 1157.21,2185.96 1157.1,2185.81L1145.97,2171.41C1145.39,2170.91 1145.02,2170.16 1145.02,2169.33L1145.02,2141.94L1135.28,2141.94L1135.28,2168.3L1146.06,2182.25C1146.47,2182.15 1146.89,2182.09 1147.33,2182.09C1150.19,2182.09 1152.52,2184.42 1152.52,2187.28C1152.52,2190.15 1150.19,2192.47 1147.33,2192.47C1144.46,2192.47 1142.14,2190.15 1142.14,2187.28C1142.14,2186.92 1142.18,2186.56 1142.25,2186.22C1142.11,2186.1 1141.98,2185.96 1141.87,2185.81L1130.74,2171.41C1130.16,2170.91 1129.79,2170.16 1129.79,2169.33L1129.79,2141.94L1120.07,2141.94L1120.07,2176.29C1121.4,2177.18 1122.29,2178.71 1122.29,2180.44C1122.29,2183.19 1120.05,2185.43 1117.29,2185.43C1114.54,2185.43 1112.3,2183.19 1112.3,2180.44C1112.3,2178.68 1113.2,2177.14 1114.57,2176.25L1114.57,2141.94L1104.08,2141.94L1104.08,2176.29C1105.42,2177.18 1106.3,2178.71 1106.3,2180.44C1106.3,2183.19 1104.06,2185.43 1101.3,2185.43C1098.55,2185.43 1096.31,2183.19 1096.31,2180.44C1096.31,2178.68 1097.22,2177.14 1098.59,2176.25L1098.59,2141.94L1088.09,2141.94L1088.09,2176.29C1089.43,2177.18 1090.31,2178.71 1090.31,2180.44C1090.31,2183.19 1088.07,2185.43 1085.32,2185.43C1082.56,2185.43 1080.32,2183.19 1080.32,2180.44C1080.32,2178.68 1081.23,2177.14 1082.6,2176.25L1082.6,2141.94L1072.11,2141.94L1072.11,2176.29C1073.44,2177.18 1074.32,2178.71 1074.32,2180.44C1074.32,2183.19 1072.09,2185.43 1069.33,2185.43C1066.57,2185.43 1064.34,2183.19 1064.34,2180.44C1064.34,2178.68 1065.24,2177.14 1066.61,2176.25L1066.61,2141.94L1056.12,2141.94L1056.12,2176.29C1057.45,2177.18 1058.34,2178.71 1058.34,2180.44C1058.34,2183.19 1056.1,2185.43 1053.34,2185.43C1050.59,2185.43 1048.35,2183.19 1048.35,2180.44C1048.35,2178.68 1049.25,2177.14 1050.62,2176.25L1050.62,2141.94L1040.85,2141.94L1040.85,2169.78C1040.85,2170.61 1040.48,2171.36 1039.89,2171.86L1028.76,2186.26C1028.65,2186.41 1028.52,2186.54 1028.38,2186.66C1028.45,2187.01 1028.49,2187.36 1028.49,2187.73C1028.49,2190.59 1026.17,2192.92 1023.31,2192.92C1020.44,2192.92 1018.12,2190.59 1018.12,2187.73C1018.12,2184.87 1020.44,2182.54 1023.31,2182.54C1023.74,2182.54 1024.17,2182.6 1024.57,2182.7L1035.35,2168.75L1035.35,2141.94L1025.62,2141.94L1025.62,2169.78C1025.62,2170.61 1025.25,2171.36 1024.66,2171.86L1013.53,2186.26C1013.42,2186.41 1013.29,2186.54 1013.15,2186.66C1013.22,2187.01 1013.26,2187.36 1013.26,2187.73C1013.26,2190.59 1010.94,2192.92 1008.08,2192.92C1005.21,2192.92 1002.89,2190.59 1002.89,2187.73C1002.89,2184.87 1005.21,2182.54 1008.08,2182.54C1008.51,2182.54 1008.94,2182.6 1009.34,2182.7L1020.12,2168.75L1020.12,2141.94L1010.39,2141.94L1010.39,2169.78C1010.39,2170.61 1010.01,2171.36 1009.43,2171.86L998.303,2186.26C998.188,2186.41 998.06,2186.54 997.922,2186.66C997.994,2187.01 998.032,2187.36 998.032,2187.73C998.032,2190.59 995.707,2192.92 992.844,2192.92C989.981,2192.92 987.656,2190.59 987.656,2187.73C987.656,2184.87 989.981,2182.54 992.844,2182.54C993.281,2182.54 993.705,2182.6 994.11,2182.7L1004.89,2168.75L1004.89,2141.94L995.156,2141.94L995.156,2169.78C995.156,2170.61 994.785,2171.36 994.199,2171.86L983.073,2186.26C982.958,2186.41 982.83,2186.54 982.692,2186.66C982.764,2187.01 982.802,2187.36 982.802,2187.73C982.802,2190.59 980.477,2192.92 977.614,2192.92C974.751,2192.92 972.426,2190.59 972.426,2187.73C972.426,2184.87 974.751,2182.54 977.614,2182.54C978.051,2182.54 978.475,2182.6 978.88,2182.7L989.66,2168.75L989.66,2141.94L989.084,2141.94C978.791,2141.94 970.435,2133.58 970.435,2123.29L970.435,2118.52L939.438,2118.52L925.488,2129.3C925.59,2129.7 925.644,2130.13 925.644,2130.56C925.644,2133.43 923.319,2135.75 920.456,2135.75C917.593,2135.75 915.268,2133.43 915.268,2130.56C915.268,2127.7 917.593,2125.38 920.456,2125.38C920.822,2125.38 921.179,2125.41 921.523,2125.49C921.642,2125.35 921.776,2125.22 921.926,2125.11L936.323,2113.98C936.827,2113.39 937.574,2113.02 938.407,2113.02L970.435,2113.02L970.435,2103.29L939.438,2103.29L925.488,2114.07C925.59,2114.47 925.644,2114.9 925.644,2115.33C925.644,2118.2 923.319,2120.52 920.456,2120.52C917.593,2120.52 915.268,2118.2 915.268,2115.33C915.268,2112.47 917.593,2110.15 920.456,2110.15C920.822,2110.15 921.179,2110.18 921.523,2110.26C921.642,2110.12 921.776,2109.99 921.926,2109.88L936.323,2098.75C936.827,2098.16 937.574,2097.79 938.407,2097.79L970.435,2097.79L970.435,2088.06L939.438,2088.06L925.488,2098.84C925.59,2099.24 925.644,2099.67 925.644,2100.1C925.644,2102.97 923.319,2105.29 920.456,2105.29C917.593,2105.29 915.268,2102.97 915.268,2100.1C915.268,2097.24 917.593,2094.92 920.456,2094.92C920.822,2094.92 921.179,2094.95 921.523,2095.03C921.642,2094.89 921.776,2094.76 921.926,2094.64L936.323,2083.52C936.827,2082.93 937.574,2082.56 938.407,2082.56L970.435,2082.56L970.435,2072.83L939.438,2072.83L925.488,2083.61C925.59,2084.01 925.644,2084.44 925.644,2084.87C925.644,2087.74 923.319,2090.06 920.456,2090.06C917.593,2090.06 915.268,2087.74 915.268,2084.87C915.268,2082.01 917.593,2079.69 920.456,2079.69C920.822,2079.69 921.179,2079.72 921.523,2079.8C921.642,2079.66 921.776,2079.53 921.926,2079.41L936.323,2068.29C936.827,2067.7 937.574,2067.33 938.407,2067.33L970.435,2067.33L970.435,2057.62L931.452,2057.62C930.556,2058.95 929.031,2059.83 927.302,2059.83C924.546,2059.83 922.309,2057.59 922.309,2054.84C922.309,2052.08 924.546,2049.84 927.302,2049.84C929.056,2049.84 930.6,2050.75 931.491,2052.12L970.435,2052.12L970.435,2041.63L931.452,2041.63C930.556,2042.96 929.031,2043.84 927.302,2043.84C924.546,2043.84 922.309,2041.61 922.309,2038.85C922.309,2036.09 924.546,2033.86 927.302,2033.86C929.056,2033.86 930.6,2034.76 931.491,2036.13L970.435,2036.13L970.435,2025.64L931.452,2025.64C930.556,2026.98 929.031,2027.86 927.302,2027.86C924.546,2027.86 922.309,2025.62 922.309,2022.86C922.309,2020.11 924.546,2017.87 927.302,2017.87C929.056,2017.87 930.6,2018.77 931.491,2020.14L970.435,2020.14L970.435,2009.65L931.452,2009.65C930.556,2010.99 929.031,2011.87 927.302,2011.87C924.546,2011.87 922.309,2009.63 922.309,2006.88C922.309,2004.12 924.546,2001.88 927.302,2001.88C929.056,2001.88 930.6,2002.79 931.491,2004.16L970.435,2004.16L970.435,1993.66L931.452,1993.66C930.556,1995 929.031,1995.88 927.302,1995.88C924.546,1995.88 922.309,1993.64 922.309,1990.89C922.309,1988.13 924.546,1985.89 927.302,1985.89C929.056,1985.89 930.6,1986.8 931.491,1988.17L970.435,1988.17L970.435,1978.39L937.959,1978.39C937.127,1978.39 936.38,1978.02 935.876,1977.44L921.478,1966.31C921.329,1966.19 921.194,1966.07 921.076,1965.93C920.731,1966 920.374,1966.04 920.008,1966.04C917.145,1966.04 914.82,1963.71 914.82,1960.85C914.82,1957.99 917.145,1955.66 920.008,1955.66C922.871,1955.66 925.196,1957.99 925.196,1960.85C925.196,1961.29 925.142,1961.71 925.04,1962.12L938.99,1972.9L970.435,1972.9L970.435,1963.16L937.959,1963.16C937.127,1963.16 936.38,1962.79 935.876,1962.21L921.478,1951.08C921.329,1950.96 921.194,1950.84 921.076,1950.7C920.731,1950.77 920.374,1950.81 920.008,1950.81C917.145,1950.81 914.82,1948.48 914.82,1945.62C914.82,1942.76 917.145,1940.43 920.008,1940.43C922.871,1940.43 925.196,1942.76 925.196,1945.62C925.196,1946.06 925.142,1946.48 925.04,1946.89L938.99,1957.67L970.435,1957.67L970.435,1947.93L937.959,1947.93C937.127,1947.93 936.38,1947.56 935.876,1946.98L921.478,1935.85C921.329,1935.73 921.194,1935.61 921.076,1935.47C920.731,1935.54 920.374,1935.58 920.008,1935.58C917.145,1935.58 914.82,1933.25 914.82,1930.39C914.82,1927.53 917.145,1925.2 920.008,1925.2C922.871,1925.2 925.196,1927.53 925.196,1930.39C925.196,1930.83 925.142,1931.25 925.04,1931.66L938.99,1942.44L970.435,1942.44L970.435,1932.7L937.959,1932.7C937.127,1932.7 936.38,1932.33 935.876,1931.75L921.478,1920.62C921.329,1920.5 921.194,1920.38 921.076,1920.24C920.731,1920.31 920.374,1920.35 920.008,1920.35C917.145,1920.35 914.82,1918.02 914.82,1915.16C914.82,1912.3 917.145,1909.97 920.008,1909.97C922.871,1909.97 925.196,1912.3 925.196,1915.16C925.196,1915.6 925.142,1916.02 925.04,1916.43L938.99,1927.21L970.435,1927.21L970.435,1922.44C970.435,1912.14 978.791,1903.79 989.084,1903.79L989.66,1903.79L989.66,1879.35L978.88,1865.4C978.475,1865.51 978.051,1865.56 977.614,1865.56C974.751,1865.56 972.426,1863.24 972.426,1860.37C972.426,1857.51 974.751,1855.18 977.614,1855.18C980.477,1855.18 982.802,1857.51 982.802,1860.37C982.802,1860.74 982.764,1861.1 982.692,1861.44C982.83,1861.56 982.958,1861.69 983.073,1861.84L994.199,1876.24C994.785,1876.74 995.156,1877.49 995.156,1878.32L995.156,1903.79L1004.89,1903.79L1004.89,1879.35L994.11,1865.4C993.705,1865.51 993.281,1865.56 992.844,1865.56C989.981,1865.56 987.656,1863.24 987.656,1860.37C987.656,1857.51 989.981,1855.18 992.844,1855.18C995.707,1855.18 998.032,1857.51 998.032,1860.37C998.032,1860.74 997.994,1861.1 997.922,1861.44C998.06,1861.56 998.188,1861.69 998.303,1861.84L1009.43,1876.24C1010.01,1876.74 1010.39,1877.49 1010.39,1878.32L1010.39,1903.79L1020.12,1903.79L1020.12,1879.35L1009.34,1865.4C1008.94,1865.51 1008.51,1865.56 1008.08,1865.56C1005.21,1865.56 1002.89,1863.24 1002.89,1860.37C1002.89,1857.51 1005.21,1855.18 1008.08,1855.18C1010.94,1855.18 1013.26,1857.51 1013.26,1860.37C1013.26,1860.74 1013.22,1861.1 1013.15,1861.44C1013.29,1861.56 1013.42,1861.69 1013.53,1861.84L1024.66,1876.24C1025.25,1876.74 1025.62,1877.49 1025.62,1878.32L1025.62,1903.79L1035.35,1903.79L1035.35,1879.35L1024.57,1865.4C1024.17,1865.51 1023.74,1865.56 1023.31,1865.56C1020.44,1865.56 1018.12,1863.24 1018.12,1860.37C1018.12,1857.51 1020.44,1855.18 1023.31,1855.18C1026.17,1855.18 1028.49,1857.51 1028.49,1860.37C1028.49,1860.74 1028.45,1861.1 1028.38,1861.44C1028.52,1861.56 1028.65,1861.69 1028.76,1861.84L1039.89,1876.24C1040.48,1876.74 1040.85,1877.49 1040.85,1878.32L1040.85,1903.79L1050.62,1903.79L1050.62,1871.86C1049.25,1870.96 1048.35,1869.42 1048.35,1867.67C1048.35,1864.91 1050.59,1862.67 1053.34,1862.67C1056.1,1862.67 1058.34,1864.91 1058.34,1867.67C1058.34,1869.39 1057.45,1870.92 1056.12,1871.82L1056.12,1903.79L1066.61,1903.79L1066.61,1871.86C1065.24,1870.96 1064.34,1869.42 1064.34,1867.67C1064.34,1864.91 1066.57,1862.67 1069.33,1862.67C1072.09,1862.67 1074.32,1864.91 1074.32,1867.67C1074.32,1869.39 1073.44,1870.92 1072.11,1871.82L1072.11,1903.79L1082.6,1903.79L1082.6,1871.86C1081.23,1870.96 1080.32,1869.42 1080.32,1867.67C1080.32,1864.91 1082.56,1862.67 1085.32,1862.67C1088.07,1862.67 1090.31,1864.91 1090.31,1867.67C1090.31,1869.39 1089.43,1870.92 1088.09,1871.82L1088.09,1903.79L1098.59,1903.79L1098.59,1871.86C1097.22,1870.96 1096.31,1869.42 1096.31,1867.67C1096.31,1864.91 1098.55,1862.67 1101.3,1862.67C1104.06,1862.67 1106.3,1864.91 1106.3,1867.67C1106.3,1869.39 1105.42,1870.92 1104.08,1871.82L1104.08,1903.79L1114.57,1903.79L1114.57,1871.86C1113.2,1870.96 1112.3,1869.42 1112.3,1867.67C1112.3,1864.91 1114.54,1862.67 1117.29,1862.67C1120.05,1862.67 1122.29,1864.91 1122.29,1867.67C1122.29,1869.39 1121.4,1870.92 1120.07,1871.82L1120.07,1903.79L1129.79,1903.79L1129.79,1878.77C1129.79,1877.94 1130.16,1877.19 1130.74,1876.69L1141.87,1862.29C1141.98,1862.14 1142.11,1862.01 1142.25,1861.89C1142.18,1861.54 1142.14,1861.19 1142.14,1860.82C1142.14,1857.96 1144.46,1855.63 1147.33,1855.63C1150.19,1855.63 1152.52,1857.96 1152.52,1860.82C1152.52,1863.68 1150.19,1866.01 1147.33,1866.01C1146.89,1866.01 1146.47,1865.95 1146.06,1865.85L1135.28,1879.8L1135.28,1903.79L1145.02,1903.79L1145.02,1878.77C1145.02,1877.94 1145.39,1877.19 1145.97,1876.69L1157.1,1862.29C1157.21,1862.14 1157.34,1862.01 1157.48,1861.89C1157.41,1861.54 1157.37,1861.19 1157.37,1860.82C1157.37,1857.96 1159.69,1855.63 1162.56,1855.63C1165.42,1855.63 1167.75,1857.96 1167.75,1860.82C1167.75,1863.68 1165.42,1866.01 1162.56,1866.01C1162.12,1866.01 1161.7,1865.95 1161.29,1865.85L1150.51,1879.8L1150.51,1903.79L1160.25,1903.79L1160.25,1878.77C1160.25,1877.94 1160.62,1877.19 1161.2,1876.69L1172.33,1862.29C1172.44,1862.14 1172.57,1862.01 1172.71,1861.89C1172.64,1861.54 1172.6,1861.19 1172.6,1860.82C1172.6,1857.96 1174.92,1855.63 1177.79,1855.63C1180.65,1855.63 1182.98,1857.96 1182.98,1860.82C1182.98,1863.68 1180.65,1866.01 1177.79,1866.01C1177.35,1866.01 1176.93,1865.95 1176.52,1865.85L1165.74,1879.8L1165.74,1903.79L1175.48,1903.79L1175.48,1878.77C1175.48,1877.94 1175.85,1877.19 1176.43,1876.69L1187.56,1862.29C1187.67,1862.14 1187.8,1862.01 1187.94,1861.89C1187.87,1861.54 1187.83,1861.19 1187.83,1860.82C1187.83,1857.96 1190.15,1855.63 1193.02,1855.63C1195.88,1855.63 1198.21,1857.96 1198.21,1860.82C1198.21,1863.68 1195.88,1866.01 1193.02,1866.01C1192.58,1866.01 1192.16,1865.95 1191.75,1865.85L1180.97,1879.8L1180.97,1903.79L1181.55,1903.79C1191.84,1903.79 1200.2,1912.14 1200.2,1922.44L1200.2,1927.21L1226.21,1927.21L1240.16,1916.43C1240.06,1916.02 1240,1915.6 1240,1915.16C1240,1912.3 1242.33,1909.97 1245.19,1909.97C1248.05,1909.97 1250.38,1912.3 1250.38,1915.16C1250.38,1918.02 1248.05,1920.35 1245.19,1920.35C1244.82,1920.35 1244.47,1920.31 1244.12,1920.24C1244,1920.38 1243.87,1920.5 1243.72,1920.62L1229.32,1931.75C1228.82,1932.33 1228.07,1932.7 1227.24,1932.7L1200.2,1932.7L1200.2,1942.44L1226.21,1942.44L1240.16,1931.66C1240.06,1931.25 1240,1930.83 1240,1930.39C1240,1927.53 1242.33,1925.2 1245.19,1925.2C1248.05,1925.2 1250.38,1927.53 1250.38,1930.39C1250.38,1933.25 1248.05,1935.58 1245.19,1935.58C1244.82,1935.58 1244.47,1935.54 1244.12,1935.47C1244,1935.61 1243.87,1935.73 1243.72,1935.85L1229.32,1946.98C1228.82,1947.56 1228.07,1947.93 1227.24,1947.93L1200.2,1947.93L1200.2,1957.67L1226.21,1957.67L1240.16,1946.89C1240.06,1946.48 1240,1946.06 1240,1945.62C1240,1942.76 1242.33,1940.43 1245.19,1940.43C1248.05,1940.43 1250.38,1942.76 1250.38,1945.62C1250.38,1948.48 1248.05,1950.81 1245.19,1950.81C1244.82,1950.81 1244.47,1950.77 1244.12,1950.7C1244,1950.84 1243.87,1950.96 1243.72,1951.08L1229.32,1962.21C1228.82,1962.79 1228.07,1963.16 1227.24,1963.16L1200.2,1963.16L1200.2,1972.9L1226.21,1972.9L1240.16,1962.12C1240.06,1961.71 1240,1961.29 1240,1960.85C1240,1957.99 1242.33,1955.66 1245.19,1955.66C1248.05,1955.66 1250.38,1957.99 1250.38,1960.85C1250.38,1963.71 1248.05,1966.04 1245.19,1966.04C1244.82,1966.04 1244.47,1966 1244.12,1965.93C1244,1966.07 1243.87,1966.19 1243.72,1966.31L1229.32,1977.44C1228.82,1978.02 1228.07,1978.39 1227.24,1978.39L1200.2,1978.39L1200.2,1988.17L1233.71,1988.17C1234.6,1986.8 1236.14,1985.89 1237.9,1985.89C1240.65,1985.89 1242.89,1988.13 1242.89,1990.89C1242.89,1993.64 1240.65,1995.88 1237.9,1995.88C1236.17,1995.88 1234.64,1995 1233.75,1993.66L1200.2,1993.66L1200.2,2004.16L1233.71,2004.16C1234.6,2002.79 1236.14,2001.88 1237.9,2001.88C1240.65,2001.88 1242.89,2004.12 1242.89,2006.88C1242.89,2009.63 1240.65,2011.87 1237.9,2011.87C1236.17,2011.87 1234.64,2010.99 1233.75,2009.65L1200.2,2009.65L1200.2,2020.14L1233.71,2020.14C1234.6,2018.77 1236.14,2017.87 1237.9,2017.87C1240.65,2017.87 1242.89,2020.11 1242.89,2022.86C1242.89,2025.62 1240.65,2027.86 1237.9,2027.86C1236.17,2027.86 1234.64,2026.98 1233.75,2025.64L1200.2,2025.64L1200.2,2036.13L1233.71,2036.13C1234.6,2034.76 1236.14,2033.86 1237.9,2033.86C1240.65,2033.86 1242.89,2036.09 1242.89,2038.85C1242.89,2041.61 1240.65,2043.84 1237.9,2043.84C1236.17,2043.84 1234.64,2042.96 1233.75,2041.63L1200.2,2041.63L1200.2,2052.12L1233.71,2052.12C1234.6,2050.75 1236.14,2049.84 1237.9,2049.84C1240.65,2049.84 1242.89,2052.08 1242.89,2054.84C1242.89,2057.59 1240.65,2059.83 1237.9,2059.83C1236.17,2059.83 1234.64,2058.95 1233.75,2057.62L1200.2,2057.62L1200.2,2067.33L1226.79,2067.33C1227.62,2067.33 1228.37,2067.7 1228.88,2068.29L1243.27,2079.41C1243.42,2079.53 1243.56,2079.66 1243.67,2079.8C1244.02,2079.72 1244.38,2079.69 1244.74,2079.69C1247.61,2079.69 1249.93,2082.01 1249.93,2084.87C1249.93,2087.74 1247.61,2090.06 1244.74,2090.06C1241.88,2090.06 1239.55,2087.74 1239.55,2084.87C1239.55,2084.44 1239.61,2084.01 1239.71,2083.61L1225.76,2072.83L1200.2,2072.83L1200.2,2082.56L1226.79,2082.56C1227.62,2082.56 1228.37,2082.93 1228.88,2083.52L1243.27,2094.64C1243.42,2094.76 1243.56,2094.89 1243.67,2095.03C1244.02,2094.95 1244.38,2094.92 1244.74,2094.92C1247.61,2094.92 1249.93,2097.24 1249.93,2100.1C1249.93,2102.97 1247.61,2105.29 1244.74,2105.29C1241.88,2105.29 1239.55,2102.97 1239.55,2100.1C1239.55,2099.67 1239.61,2099.24 1239.71,2098.84L1225.76,2088.06L1200.2,2088.06L1200.2,2097.79L1226.79,2097.79C1227.62,2097.79 1228.37,2098.16 1228.88,2098.75L1243.27,2109.88C1243.42,2109.99 1243.56,2110.12 1243.67,2110.26C1244.02,2110.18 1244.38,2110.15 1244.74,2110.15C1247.61,2110.15 1249.93,2112.47 1249.93,2115.33C1249.93,2118.2 1247.61,2120.52 1244.74,2120.52C1241.88,2120.52 1239.55,2118.2 1239.55,2115.33C1239.55,2114.9 1239.61,2114.47 1239.71,2114.07L1225.76,2103.29L1200.2,2103.29L1200.2,2113.02ZM992.844,2189.31C991.973,2189.31 991.265,2188.6 991.265,2187.73C991.265,2186.86 991.973,2186.15 992.844,2186.15C993.716,2186.15 994.423,2186.86 994.423,2187.73C994.423,2188.6 993.716,2189.31 992.844,2189.31ZM1023.31,2189.31C1022.43,2189.31 1021.73,2188.6 1021.73,2187.73C1021.73,2186.86 1022.43,2186.15 1023.31,2186.15C1024.18,2186.15 1024.88,2186.86 1024.88,2187.73C1024.88,2188.6 1024.18,2189.31 1023.31,2189.31ZM1008.08,2189.31C1007.2,2189.31 1006.5,2188.6 1006.5,2187.73C1006.5,2186.86 1007.2,2186.15 1008.08,2186.15C1008.95,2186.15 1009.65,2186.86 1009.65,2187.73C1009.65,2188.6 1008.95,2189.31 1008.08,2189.31ZM977.614,2189.31C976.742,2189.31 976.035,2188.6 976.035,2187.73C976.035,2186.86 976.742,2186.15 977.614,2186.15C978.485,2186.15 979.193,2186.86 979.193,2187.73C979.193,2188.6 978.485,2189.31 977.614,2189.31ZM1162.56,2188.86C1163.43,2188.86 1164.14,2188.15 1164.14,2187.28C1164.14,2186.41 1163.43,2185.7 1162.56,2185.7C1161.69,2185.7 1160.98,2186.41 1160.98,2187.28C1160.98,2188.15 1161.69,2188.86 1162.56,2188.86ZM1193.02,2188.86C1193.89,2188.86 1194.6,2188.15 1194.6,2187.28C1194.6,2186.41 1193.89,2185.7 1193.02,2185.7C1192.15,2185.7 1191.44,2186.41 1191.44,2187.28C1191.44,2188.15 1192.15,2188.86 1193.02,2188.86ZM1177.79,2188.86C1178.66,2188.86 1179.37,2188.15 1179.37,2187.28C1179.37,2186.41 1178.66,2185.7 1177.79,2185.7C1176.92,2185.7 1176.21,2186.41 1176.21,2187.28C1176.21,2188.15 1176.92,2188.86 1177.79,2188.86ZM1147.33,2188.86C1148.2,2188.86 1148.91,2188.15 1148.91,2187.28C1148.91,2186.41 1148.2,2185.7 1147.33,2185.7C1146.46,2185.7 1145.75,2186.41 1145.75,2187.28C1145.75,2188.15 1146.46,2188.86 1147.33,2188.86ZM1101.3,2181.82C1100.54,2181.82 1099.92,2181.2 1099.92,2180.44C1099.92,2179.67 1100.54,2179.05 1101.3,2179.05C1102.07,2179.05 1102.69,2179.67 1102.69,2180.44C1102.69,2181.2 1102.07,2181.82 1101.3,2181.82ZM1069.33,2181.82C1068.56,2181.82 1067.94,2181.2 1067.94,2180.44C1067.94,2179.67 1068.56,2179.05 1069.33,2179.05C1070.09,2179.05 1070.71,2179.67 1070.71,2180.44C1070.71,2181.2 1070.09,2181.82 1069.33,2181.82ZM1053.34,2181.82C1052.58,2181.82 1051.96,2181.2 1051.96,2180.44C1051.96,2179.67 1052.58,2179.05 1053.34,2179.05C1054.11,2179.05 1054.73,2179.67 1054.73,2180.44C1054.73,2181.2 1054.11,2181.82 1053.34,2181.82ZM1085.32,2181.82C1084.55,2181.82 1083.93,2181.2 1083.93,2180.44C1083.93,2179.67 1084.55,2179.05 1085.32,2179.05C1086.08,2179.05 1086.7,2179.67 1086.7,2180.44C1086.7,2181.2 1086.08,2181.82 1085.32,2181.82ZM1117.29,2181.82C1116.53,2181.82 1115.91,2181.2 1115.91,2180.44C1115.91,2179.67 1116.53,2179.05 1117.29,2179.05C1118.06,2179.05 1118.68,2179.67 1118.68,2180.44C1118.68,2181.2 1118.06,2181.82 1117.29,2181.82ZM1246.32,2130.56C1246.32,2131.44 1245.61,2132.14 1244.74,2132.14C1243.87,2132.14 1243.16,2131.44 1243.16,2130.56C1243.16,2129.69 1243.87,2128.99 1244.74,2128.99C1245.61,2128.99 1246.32,2129.69 1246.32,2130.56ZM918.877,2130.56C918.877,2131.44 919.584,2132.14 920.456,2132.14C921.327,2132.14 922.035,2131.44 922.035,2130.56C922.035,2129.69 921.327,2128.99 920.456,2128.99C919.584,2128.99 918.877,2129.69 918.877,2130.56ZM918.877,2115.33C918.877,2116.21 919.584,2116.91 920.456,2116.91C921.327,2116.91 922.035,2116.21 922.035,2115.33C922.035,2114.46 921.327,2113.76 920.456,2113.76C919.584,2113.76 918.877,2114.46 918.877,2115.33ZM1246.32,2115.33C1246.32,2116.21 1245.61,2116.91 1244.74,2116.91C1243.87,2116.91 1243.16,2116.21 1243.16,2115.33C1243.16,2114.46 1243.87,2113.76 1244.74,2113.76C1245.61,2113.76 1246.32,2114.46 1246.32,2115.33ZM918.877,2100.1C918.877,2100.97 919.584,2101.68 920.456,2101.68C921.327,2101.68 922.035,2100.97 922.035,2100.1C922.035,2099.23 921.327,2098.53 920.456,2098.53C919.584,2098.53 918.877,2099.23 918.877,2100.1ZM1246.32,2100.1C1246.32,2100.97 1245.61,2101.68 1244.74,2101.68C1243.87,2101.68 1243.16,2100.97 1243.16,2100.1C1243.16,2099.23 1243.87,2098.53 1244.74,2098.53C1245.61,2098.53 1246.32,2099.23 1246.32,2100.1ZM1246.32,2084.87C1246.32,2085.74 1245.61,2086.45 1244.74,2086.45C1243.87,2086.45 1243.16,2085.74 1243.16,2084.87C1243.16,2084 1243.87,2083.3 1244.74,2083.3C1245.61,2083.3 1246.32,2084 1246.32,2084.87ZM918.877,2084.87C918.877,2085.74 919.584,2086.45 920.456,2086.45C921.327,2086.45 922.035,2085.74 922.035,2084.87C922.035,2084 921.327,2083.3 920.456,2083.3C919.584,2083.3 918.877,2084 918.877,2084.87ZM1239.28,2054.84C1239.28,2054.07 1238.66,2053.45 1237.9,2053.45C1237.13,2053.45 1236.51,2054.07 1236.51,2054.84C1236.51,2055.6 1237.13,2056.22 1237.9,2056.22C1238.66,2056.22 1239.28,2055.6 1239.28,2054.84ZM925.918,2054.84C925.918,2054.07 926.538,2053.45 927.302,2053.45C928.067,2053.45 928.687,2054.07 928.687,2054.84C928.687,2055.6 928.067,2056.22 927.302,2056.22C926.538,2056.22 925.918,2055.6 925.918,2054.84ZM925.918,2038.85C925.918,2038.09 926.538,2037.47 927.302,2037.47C928.067,2037.47 928.687,2038.09 928.687,2038.85C928.687,2039.61 928.067,2040.24 927.302,2040.24C926.538,2040.24 925.918,2039.61 925.918,2038.85ZM1239.28,2038.85C1239.28,2038.09 1238.66,2037.47 1237.9,2037.47C1237.13,2037.47 1236.51,2038.09 1236.51,2038.85C1236.51,2039.61 1237.13,2040.24 1237.9,2040.24C1238.66,2040.24 1239.28,2039.61 1239.28,2038.85ZM1239.28,2022.86C1239.28,2022.1 1238.66,2021.48 1237.9,2021.48C1237.13,2021.48 1236.51,2022.1 1236.51,2022.86C1236.51,2023.63 1237.13,2024.25 1237.9,2024.25C1238.66,2024.25 1239.28,2023.63 1239.28,2022.86ZM925.918,2022.86C925.918,2022.1 926.538,2021.48 927.302,2021.48C928.067,2021.48 928.687,2022.1 928.687,2022.86C928.687,2023.63 928.067,2024.25 927.302,2024.25C926.538,2024.25 925.918,2023.63 925.918,2022.86ZM925.918,2006.88C925.918,2006.11 926.538,2005.49 927.302,2005.49C928.067,2005.49 928.687,2006.11 928.687,2006.88C928.687,2007.64 928.067,2008.26 927.302,2008.26C926.538,2008.26 925.918,2007.64 925.918,2006.88ZM1239.28,2006.88C1239.28,2006.11 1238.66,2005.49 1237.9,2005.49C1237.13,2005.49 1236.51,2006.11 1236.51,2006.88C1236.51,2007.64 1237.13,2008.26 1237.9,2008.26C1238.66,2008.26 1239.28,2007.64 1239.28,2006.88ZM1239.28,1990.89C1239.28,1990.12 1238.66,1989.5 1237.9,1989.5C1237.13,1989.5 1236.51,1990.12 1236.51,1990.89C1236.51,1991.65 1237.13,1992.27 1237.9,1992.27C1238.66,1992.27 1239.28,1991.65 1239.28,1990.89ZM925.918,1990.89C925.918,1990.12 926.538,1989.5 927.302,1989.5C928.067,1989.5 928.687,1990.12 928.687,1990.89C928.687,1991.65 928.067,1992.27 927.302,1992.27C926.538,1992.27 925.918,1991.65 925.918,1990.89ZM918.429,1960.85C918.429,1959.98 919.137,1959.27 920.008,1959.27C920.88,1959.27 921.587,1959.98 921.587,1960.85C921.587,1961.72 920.88,1962.43 920.008,1962.43C919.137,1962.43 918.429,1961.72 918.429,1960.85ZM1246.77,1960.85C1246.77,1959.98 1246.06,1959.27 1245.19,1959.27C1244.32,1959.27 1243.61,1959.98 1243.61,1960.85C1243.61,1961.72 1244.32,1962.43 1245.19,1962.43C1246.06,1962.43 1246.77,1961.72 1246.77,1960.85ZM918.429,1945.62C918.429,1944.75 919.137,1944.04 920.008,1944.04C920.88,1944.04 921.587,1944.75 921.587,1945.62C921.587,1946.49 920.88,1947.2 920.008,1947.2C919.137,1947.2 918.429,1946.49 918.429,1945.62ZM1246.77,1945.62C1246.77,1944.75 1246.06,1944.04 1245.19,1944.04C1244.32,1944.04 1243.61,1944.75 1243.61,1945.62C1243.61,1946.49 1244.32,1947.2 1245.19,1947.2C1246.06,1947.2 1246.77,1946.49 1246.77,1945.62ZM918.429,1930.39C918.429,1929.52 919.137,1928.81 920.008,1928.81C920.88,1928.81 921.587,1929.52 921.587,1930.39C921.587,1931.26 920.88,1931.97 920.008,1931.97C919.137,1931.97 918.429,1931.26 918.429,1930.39ZM1246.77,1930.39C1246.77,1929.52 1246.06,1928.81 1245.19,1928.81C1244.32,1928.81 1243.61,1929.52 1243.61,1930.39C1243.61,1931.26 1244.32,1931.97 1245.19,1931.97C1246.06,1931.97 1246.77,1931.26 1246.77,1930.39ZM918.429,1915.16C918.429,1914.29 919.137,1913.58 920.008,1913.58C920.88,1913.58 921.587,1914.29 921.587,1915.16C921.587,1916.03 920.88,1916.74 920.008,1916.74C919.137,1916.74 918.429,1916.03 918.429,1915.16ZM1246.77,1915.16C1246.77,1914.29 1246.06,1913.58 1245.19,1913.58C1244.32,1913.58 1243.61,1914.29 1243.61,1915.16C1243.61,1916.03 1244.32,1916.74 1245.19,1916.74C1246.06,1916.74 1246.77,1916.03 1246.77,1915.16ZM1069.33,1866.28C1068.56,1866.28 1067.94,1866.9 1067.94,1867.67C1067.94,1868.43 1068.56,1869.05 1069.33,1869.05C1070.09,1869.05 1070.71,1868.43 1070.71,1867.67C1070.71,1866.9 1070.09,1866.28 1069.33,1866.28ZM1101.3,1866.28C1100.54,1866.28 1099.92,1866.9 1099.92,1867.67C1099.92,1868.43 1100.54,1869.05 1101.3,1869.05C1102.07,1869.05 1102.69,1868.43 1102.69,1867.67C1102.69,1866.9 1102.07,1866.28 1101.3,1866.28ZM1117.29,1866.28C1116.53,1866.28 1115.91,1866.9 1115.91,1867.67C1115.91,1868.43 1116.53,1869.05 1117.29,1869.05C1118.06,1869.05 1118.68,1868.43 1118.68,1867.67C1118.68,1866.9 1118.06,1866.28 1117.29,1866.28ZM1053.34,1866.28C1052.58,1866.28 1051.96,1866.9 1051.96,1867.67C1051.96,1868.43 1052.58,1869.05 1053.34,1869.05C1054.11,1869.05 1054.73,1868.43 1054.73,1867.67C1054.73,1866.9 1054.11,1866.28 1053.34,1866.28ZM1085.32,1866.28C1084.55,1866.28 1083.93,1866.9 1083.93,1867.67C1083.93,1868.43 1084.55,1869.05 1085.32,1869.05C1086.08,1869.05 1086.7,1868.43 1086.7,1867.67C1086.7,1866.9 1086.08,1866.28 1085.32,1866.28ZM1177.79,1859.24C1178.66,1859.24 1179.37,1859.95 1179.37,1860.82C1179.37,1861.69 1178.66,1862.4 1177.79,1862.4C1176.92,1862.4 1176.21,1861.69 1176.21,1860.82C1176.21,1859.95 1176.92,1859.24 1177.79,1859.24ZM1147.33,1859.24C1148.2,1859.24 1148.91,1859.95 1148.91,1860.82C1148.91,1861.69 1148.2,1862.4 1147.33,1862.4C1146.46,1862.4 1145.75,1861.69 1145.75,1860.82C1145.75,1859.95 1146.46,1859.24 1147.33,1859.24ZM1193.02,1859.24C1193.89,1859.24 1194.6,1859.95 1194.6,1860.82C1194.6,1861.69 1193.89,1862.4 1193.02,1862.4C1192.15,1862.4 1191.44,1861.69 1191.44,1860.82C1191.44,1859.95 1192.15,1859.24 1193.02,1859.24ZM1162.56,1859.24C1163.43,1859.24 1164.14,1859.95 1164.14,1860.82C1164.14,1861.69 1163.43,1862.4 1162.56,1862.4C1161.69,1862.4 1160.98,1861.69 1160.98,1860.82C1160.98,1859.95 1161.69,1859.24 1162.56,1859.24ZM1008.08,1858.79C1007.2,1858.79 1006.5,1859.5 1006.5,1860.37C1006.5,1861.24 1007.2,1861.95 1008.08,1861.95C1008.95,1861.95 1009.65,1861.24 1009.65,1860.37C1009.65,1859.5 1008.95,1858.79 1008.08,1858.79ZM1023.31,1858.79C1022.43,1858.79 1021.73,1859.5 1021.73,1860.37C1021.73,1861.24 1022.43,1861.95 1023.31,1861.95C1024.18,1861.95 1024.88,1861.24 1024.88,1860.37C1024.88,1859.5 1024.18,1858.79 1023.31,1858.79ZM992.844,1858.79C991.973,1858.79 991.265,1859.5 991.265,1860.37C991.265,1861.24 991.973,1861.95 992.844,1861.95C993.716,1861.95 994.423,1861.24 994.423,1860.37C994.423,1859.5 993.716,1858.79 992.844,1858.79ZM977.614,1858.79C976.742,1858.79 976.035,1859.5 976.035,1860.37C976.035,1861.24 976.742,1861.95 977.614,1861.95C978.485,1861.95 979.193,1861.24 979.193,1860.37C979.193,1859.5 978.485,1858.79 977.614,1858.79Z" style="fill:white;"/>
                </g>
            </g>
        </g>
    </g>
</svg>
